# xmcd CD database file
# Copyright (C) 1993-1998 Ti Kan
#
# Track frame offsets:
#  182
#  5125
#  24472
#  38722
#  48685
#  67040
#  80442
#  95750
#  102867
#  122107
#  136815
#  141635
#  159280
#
# Disc length: 2293 seconds
#
# Revision: 1
# Processed by: cddbd v1.4b41PL1 Copyright (c) Steve Scherf et al.
# Submitted via: CDWizzard Release:4.60
#
DISCID=b508f30d
DTITLE=Various Artist - Chambre en ville
DYEAR=1900
DGENRE=
TTITLE0=Theme de chambre en ville
TTITLE1=On s'en fout
TTITLE2=Le jour se couche seul ce soir
TTITLE3=La reaction de Lola
TTITLE4=Tout le monde m'aime
TTITLE5=Le blues a Rodrigue
TTITLE6=Ce soir
TTITLE7=Gabriel
TTITLE8=Laissons-les rever
TTITLE9=Toujours vivant
TTITLE10=Julien
TTITLE11=Meme si je suis flyee
TTITLE12=Generique de fin
EXTD=
EXTT0=
EXTT1=
EXTT2=
EXTT3=
EXTT4=
EXTT5=
EXTT6=
EXTT7=
EXTT8=
EXTT9=
EXTT10=
EXTT11=
EXTT12=
PLAYORDER=
